name rise30.8019peak61.5557fall86.2505.mot
datacolumns 19
datarows 24
range 17.54493400000000 17.58326900000000
endheader
time	ground_force1_vx	ground_force1_vy	ground_force1_vz	ground_force1_px	ground_force1_py	ground_force1_pz	ground_force2_vx	ground_force2_vy	ground_force2_vz	ground_force2_px	ground_force2_py	ground_force2_pz	ground_torque1_x	ground_torque1_y	ground_torque1_z	ground_torque2_x	ground_torque2_y	ground_torque2_z	
17.54493400000000	57.14617700000000	755.23278700000003	42.21310600000000	0.25441600000000	0.00000000000000	0.10796100000000	0.00000000000000	0.00000000000000	0.00000000000000	0.00000000000000	0.00000000000000	0.00000000000000	0.00000000000000	9.88538200000000	0.00000000000000	0.00000000000000	0.00000000000000	0.00000000000000	
17.54660200000000	56.47348400000000	757.32974000000002	42.48163900000000	0.25320000000000	0.00000000000000	0.10801000000000	0.00000000000000	0.00000000000000	0.00000000000000	0.00000000000000	0.00000000000000	0.00000000000000	0.00000000000000	10.05683800000000	0.00000000000000	0.00000000000000	0.00000000000000	0.00000000000000	
17.54826500000000	55.78955400000000	759.25172599999996	42.75491300000000	0.25196700000000	0.00000000000000	0.10806300000000	0.00000000000000	0.00000000000000	0.00000000000000	0.00000000000000	0.00000000000000	0.00000000000000	0.00000000000000	10.23187400000000	0.00000000000000	0.00000000000000	0.00000000000000	0.00000000000000	
17.54994100000000	55.09498700000000	760.99893899999995	43.03195300000000	0.25072000000000	0.00000000000000	0.10811700000000	0.00000000000000	0.00000000000000	0.00000000000000	0.00000000000000	0.00000000000000	0.00000000000000	0.00000000000000	10.40991300000000	0.00000000000000	0.00000000000000	0.00000000000000	0.00000000000000	
17.55160400000000	54.39038700000000	762.57186999999999	43.31172400000000	0.24945600000000	0.00000000000000	0.10817300000000	0.00000000000000	0.00000000000000	0.00000000000000	0.00000000000000	0.00000000000000	0.00000000000000	0.00000000000000	10.59035000000000	0.00000000000000	0.00000000000000	0.00000000000000	0.00000000000000	
17.55327000000000	53.67636900000000	763.97130700000002	43.59314400000000	0.24817800000000	0.00000000000000	0.10823200000000	0.00000000000000	0.00000000000000	0.00000000000000	0.00000000000000	0.00000000000000	0.00000000000000	0.00000000000000	10.77256500000000	0.00000000000000	0.00000000000000	0.00000000000000	0.00000000000000	
17.55493700000000	52.95355500000000	765.19833500000004	43.87508600000000	0.24688500000000	0.00000000000000	0.10829200000000	0.00000000000000	0.00000000000000	0.00000000000000	0.00000000000000	0.00000000000000	0.00000000000000	0.00000000000000	10.95592100000000	0.00000000000000	0.00000000000000	0.00000000000000	0.00000000000000	
17.55660700000000	52.22258000000000	766.25433299999997	44.15638900000000	0.24557700000000	0.00000000000000	0.10835300000000	0.00000000000000	0.00000000000000	0.00000000000000	0.00000000000000	0.00000000000000	0.00000000000000	0.00000000000000	11.13976700000000	0.00000000000000	0.00000000000000	0.00000000000000	0.00000000000000	
17.55826600000000	51.48408600000000	767.14097400000003	44.43586100000000	0.24425500000000	0.00000000000000	0.10841600000000	0.00000000000000	0.00000000000000	0.00000000000000	0.00000000000000	0.00000000000000	0.00000000000000	0.00000000000000	11.32344900000000	0.00000000000000	0.00000000000000	0.00000000000000	0.00000000000000	
17.55993500000000	50.73872500000000	767.86021500000004	44.71229200000000	0.24291900000000	0.00000000000000	0.10848100000000	0.00000000000000	0.00000000000000	0.00000000000000	0.00000000000000	0.00000000000000	0.00000000000000	0.00000000000000	11.50630600000000	0.00000000000000	0.00000000000000	0.00000000000000	0.00000000000000	
17.56160000000000	49.98716200000000	768.41429400000004	44.98445400000000	0.24156900000000	0.00000000000000	0.10854600000000	0.00000000000000	0.00000000000000	0.00000000000000	0.00000000000000	0.00000000000000	0.00000000000000	0.00000000000000	11.68767800000000	0.00000000000000	0.00000000000000	0.00000000000000	0.00000000000000	
17.56326700000000	49.23007000000000	768.80572800000004	45.25111700000000	0.24020700000000	0.00000000000000	0.10861200000000	0.00000000000000	0.00000000000000	0.00000000000000	0.00000000000000	0.00000000000000	0.00000000000000	0.00000000000000	11.86690700000000	0.00000000000000	0.00000000000000	0.00000000000000	0.00000000000000	
17.56493500000000	48.46813500000000	769.03730199999995	45.51105100000000	0.23883300000000	0.00000000000000	0.10867900000000	0.00000000000000	0.00000000000000	0.00000000000000	0.00000000000000	0.00000000000000	0.00000000000000	0.00000000000000	12.04334600000000	0.00000000000000	0.00000000000000	0.00000000000000	0.00000000000000	
17.56660300000000	47.70205200000000	769.11206000000004	45.76303400000000	0.23744800000000	0.00000000000000	0.10874600000000	0.00000000000000	0.00000000000000	0.00000000000000	0.00000000000000	0.00000000000000	0.00000000000000	0.00000000000000	12.21635500000000	0.00000000000000	0.00000000000000	0.00000000000000	0.00000000000000	
17.56826700000000	46.93252300000000	769.03330100000005	46.00586100000000	0.23605200000000	0.00000000000000	0.10881400000000	0.00000000000000	0.00000000000000	0.00000000000000	0.00000000000000	0.00000000000000	0.00000000000000	0.00000000000000	12.38531100000000	0.00000000000000	0.00000000000000	0.00000000000000	0.00000000000000	
17.56993800000000	46.16026100000000	768.80456600000002	46.23834900000000	0.23464700000000	0.00000000000000	0.10888100000000	0.00000000000000	0.00000000000000	0.00000000000000	0.00000000000000	0.00000000000000	0.00000000000000	0.00000000000000	12.54960800000000	0.00000000000000	0.00000000000000	0.00000000000000	0.00000000000000	
17.57159900000000	45.38598800000000	768.42962899999998	46.45934700000000	0.23323300000000	0.00000000000000	0.10894900000000	0.00000000000000	0.00000000000000	0.00000000000000	0.00000000000000	0.00000000000000	0.00000000000000	0.00000000000000	12.70866000000000	0.00000000000000	0.00000000000000	0.00000000000000	0.00000000000000	
17.57327400000000	44.61043000000000	767.91248499999995	46.66773800000000	0.23181100000000	0.00000000000000	0.10901600000000	0.00000000000000	0.00000000000000	0.00000000000000	0.00000000000000	0.00000000000000	0.00000000000000	0.00000000000000	12.86190800000000	0.00000000000000	0.00000000000000	0.00000000000000	0.00000000000000	
17.57493100000000	43.83432000000000	767.25734100000000	46.86245000000000	0.23038300000000	0.00000000000000	0.10908200000000	0.00000000000000	0.00000000000000	0.00000000000000	0.00000000000000	0.00000000000000	0.00000000000000	0.00000000000000	13.00881400000000	0.00000000000000	0.00000000000000	0.00000000000000	0.00000000000000	
17.57660300000000	43.05839400000000	766.46860200000003	47.04246200000000	0.22894900000000	0.00000000000000	0.10914800000000	0.00000000000000	0.00000000000000	0.00000000000000	0.00000000000000	0.00000000000000	0.00000000000000	0.00000000000000	13.14887500000000	0.00000000000000	0.00000000000000	0.00000000000000	0.00000000000000	
17.57826900000000	42.28339200000000	765.55085599999995	47.20680400000000	0.22751100000000	0.00000000000000	0.10921200000000	0.00000000000000	0.00000000000000	0.00000000000000	0.00000000000000	0.00000000000000	0.00000000000000	0.00000000000000	13.28161600000000	0.00000000000000	0.00000000000000	0.00000000000000	0.00000000000000	
17.57993600000000	41.51005500000000	764.50886700000001	47.35457100000000	0.22607000000000	0.00000000000000	0.10927600000000	0.00000000000000	0.00000000000000	0.00000000000000	0.00000000000000	0.00000000000000	0.00000000000000	0.00000000000000	13.40659500000000	0.00000000000000	0.00000000000000	0.00000000000000	0.00000000000000	
17.58160200000000	40.73912300000000	763.34755500000006	47.48492200000000	0.22462600000000	0.00000000000000	0.10933800000000	0.00000000000000	0.00000000000000	0.00000000000000	0.00000000000000	0.00000000000000	0.00000000000000	0.00000000000000	13.52340800000000	0.00000000000000	0.00000000000000	0.00000000000000	0.00000000000000	
17.58326900000000	39.97133200000000	762.07198400000004	47.59708600000000	0.22318200000000	0.00000000000000	0.10939900000000	0.00000000000000	0.00000000000000	0.00000000000000	0.00000000000000	0.00000000000000	0.00000000000000	0.00000000000000	13.63168400000000	0.00000000000000	0.00000000000000	0.00000000000000	0.00000000000000	
